P3
# example from the man page
3 3
255
#  0    0    0      0    0    0      0    0    0
  0    0    0      0    0    0    255  255  255
  0    0    0    255  255  255      0    0    0
255  255  255      0    0    0      0    0    0
